<svg width="257" height="256" viewBox="0 0 257 256" fill="none" xmlns="http://www.w3.org/2000/svg">
<g clip-path="url(#clip0_23_28)">
<path d="M206.47 151.07C214.37 151.07 221.87 152.75 228.66 155.75L245.56 138.85C252.91 131.5 252.91 119.58 245.56 112.23L138.85 5.51006C131.5 -1.83994 119.58 -1.83994 112.23 5.51006L5.51 112.23C-1.84 119.58 -1.84 131.5 5.51 138.85L112.22 245.56C119.57 252.91 131.49 252.91 138.84 245.56L156.18 228.22C153.18 221.43 151.5 213.93 151.5 206.03C151.5 175.68 176.11 151.07 206.46 151.07H206.47ZM115.64 167.38C112.85 169.43 108.92 168.83 106.87 166.04C106.08 164.96 105.65 163.66 105.65 162.33V88.7701C105.65 85.3001 108.46 82.5001 111.92 82.5001C113.26 82.5001 114.56 82.9301 115.63 83.7201L165.64 120.5C168.43 122.55 169.03 126.48 166.98 129.27C166.6 129.78 166.15 130.23 165.64 130.61L115.63 167.39L115.64 167.38Z" fill="url(#paint0_linear_23_28)"/>
<path d="M166.99 129.26C169.04 126.47 168.45 122.54 165.65 120.49L115.64 83.71C114.56 82.92 113.26 82.49 111.93 82.49C108.46 82.49 105.66 85.3 105.66 88.76V162.32C105.66 163.66 106.09 164.96 106.88 166.03C108.93 168.82 112.86 169.42 115.65 167.37L165.66 130.59C166.17 130.21 166.62 129.76 167 129.25L166.99 129.26Z" fill="white"/>
<path d="M212.94 253.91C211.34 253.91 209.95 252.87 209.48 251.33L207.58 245.79L205.38 245.82L203.45 251.39C202.99 252.88 201.59 253.91 199.99 253.91C199.78 253.91 199.57 253.89 199.37 253.86L196.78 253.41C194.97 253.08 193.69 251.45 193.79 249.63L193.88 243.78C193.03 243.53 192.51 243.35 191.82 243.07L188.12 247.62C187.48 248.49 186.4 249.04 185.25 249.04C184.62 249.04 184 248.87 183.45 248.56L181.16 247.24C179.57 246.32 178.92 244.36 179.65 242.68L181.73 237.21C181.18 236.8 180.59 236.32 180.02 235.81L175.01 238.84C174.47 239.2 173.78 239.41 173.07 239.41C171.99 239.41 170.98 238.93 170.3 238.11L168.63 236.1C167.47 234.68 167.54 232.62 168.8 231.3L172.61 226.9C172.19 226.27 171.81 225.61 171.46 224.96L165.73 226.09C165.51 226.14 165.22 226.18 164.94 226.18C163.43 226.18 162.07 225.22 161.55 223.8L160.65 221.34C160.01 219.62 160.76 217.7 162.4 216.86L167.51 214.02C167.31 213.33 167.19 212.55 167.08 211.85L161.31 210.92C159.54 210.73 158.16 209.18 158.17 207.34V204.73C158.18 202.9 159.55 201.37 161.36 201.15L167.12 200.22C167.18 199.58 167.29 198.97 167.41 198.33L167.47 198.04L162.35 195.19C160.76 194.37 160.01 192.45 160.64 190.73L161.54 188.27C162.06 186.85 163.42 185.9 164.93 185.9C165.21 185.9 165.5 185.93 165.78 186L171.49 187.1C171.8 186.44 172.18 185.77 172.59 185.13L168.74 180.74C167.51 179.44 167.46 177.37 168.65 175.97L170.31 173.97C171.01 173.15 172.02 172.68 173.09 172.68C173.79 172.68 174.48 172.88 175.07 173.27L180.05 176.35C180.45 175.91 180.93 175.51 181.41 175.12L181.68 174.9L179.59 169.42C178.87 167.79 179.51 165.81 181.12 164.89L183.39 163.57C183.94 163.25 184.56 163.09 185.18 163.09C186.33 163.09 187.42 163.65 188.1 164.58L191.74 169.05C191.74 169.05 191.77 169.08 191.78 169.09C192.33 168.88 193.32 168.51 193.79 168.32L193.76 162.42C193.67 160.65 194.95 159.04 196.74 158.71L199.35 158.26C199.56 158.22 199.77 158.21 199.97 158.21C201.58 158.21 202.97 159.24 203.45 160.78L205.35 166.32L207.55 166.29L209.48 160.71C209.95 159.22 211.34 158.19 212.94 158.19C213.14 158.19 213.35 158.21 213.56 158.24L216.15 158.69C217.96 159.02 219.24 160.65 219.14 162.47L219.05 168.32C219.82 168.55 220.77 168.92 221.16 169.08L224.81 164.5C225.46 163.62 226.54 163.07 227.69 163.07C228.32 163.07 228.94 163.24 229.49 163.55L231.78 164.89C233.36 165.81 234.01 167.77 233.28 169.45L231.21 174.92C231.76 175.33 232.35 175.82 232.92 176.32L237.93 173.29C238.47 172.93 239.16 172.72 239.87 172.72C240.95 172.72 241.95 173.2 242.64 174.02L244.31 176.03C245.47 177.43 245.42 179.49 244.17 180.82L240.36 185.23C240.78 185.86 241.16 186.52 241.51 187.17L247.24 186.03C247.46 185.97 247.75 185.94 248.03 185.94C249.54 185.94 250.9 186.9 251.42 188.32L252.31 190.79C252.95 192.5 252.2 194.43 250.56 195.26L245.45 198.1C245.65 198.77 245.76 199.53 245.88 200.26L251.65 201.21C253.37 201.41 254.74 202.86 254.84 204.65V207.37C254.83 209.2 253.45 210.74 251.65 210.96L245.89 211.89C245.83 212.53 245.72 213.14 245.6 213.78L245.55 214.07L250.67 216.92C252.26 217.74 253.01 219.66 252.38 221.38L251.49 223.83C250.97 225.25 249.61 226.21 248.1 226.21C247.81 226.21 247.53 226.18 247.25 226.11L241.54 225C241.23 225.66 240.85 226.33 240.44 226.98L244.29 231.38C245.52 232.68 245.57 234.74 244.38 236.15L242.71 238.15C242.01 238.97 241 239.44 239.93 239.44C239.23 239.44 238.54 239.24 237.95 238.85L232.93 235.85C232.52 236.27 232.05 236.65 231.59 237.03L231.28 237.29L233.37 242.77C234.08 244.4 233.44 246.36 231.84 247.29L229.56 248.61C229.01 248.93 228.39 249.09 227.76 249.09C226.62 249.09 225.53 248.54 224.86 247.62L221.21 243.13H221.17C220.63 243.35 220 243.59 219.11 243.9L219.22 249.77C219.31 251.54 218.03 253.15 216.24 253.48L213.63 253.94C213.43 253.98 213.22 254 213.01 254H212.99L212.94 253.91ZM211.26 212.01C210.44 212.01 209.67 212.45 209.26 213.17L198.85 231.27C198.48 231.91 198.44 232.68 198.73 233.35C199.02 234.02 199.63 234.52 200.34 234.68C202.34 235.11 204.4 235.33 206.46 235.33C219.2 235.33 230.39 227.16 234.31 215C234.53 214.31 234.4 213.54 233.97 212.96C233.54 212.38 232.84 212.03 232.1 212.02H211.26V212.01ZM186.62 185.51C185.97 185.51 185.34 185.79 184.91 186.27C174.68 197.48 174.64 214.41 184.81 225.66C185.25 226.15 185.88 226.43 186.53 226.43C186.61 226.43 186.68 226.43 186.76 226.42C187.5 226.34 188.16 225.92 188.52 225.28L198.95 207.15C199.35 206.44 199.35 205.56 198.95 204.86L188.62 186.68C188.26 186.04 187.6 185.61 186.86 185.53C186.78 185.53 186.7 185.52 186.61 185.52L186.62 185.51ZM206.47 176.73C204.45 176.73 202.43 176.94 200.47 177.35C199.77 177.5 199.17 178 198.87 178.66C198.58 179.33 198.62 180.11 198.98 180.74L209.28 198.87C209.69 199.59 210.45 200.04 211.28 200.04H232.1C232.83 200.04 233.53 199.69 233.96 199.1C234.39 198.51 234.52 197.74 234.3 197.05C230.39 184.89 219.21 176.72 206.47 176.72V176.73Z" fill="white"/>
<path d="M212.91 159.41C213.04 159.41 213.18 159.42 213.31 159.44L215.9 159.89C217.07 160.11 217.9 161.16 217.84 162.35L217.75 168.25C217.75 168.79 218.09 169.27 218.6 169.43C219.51 169.73 220.67 170.21 220.81 170.27C220.94 170.32 221.07 170.35 221.21 170.35C221.55 170.35 221.88 170.18 222.08 169.88L225.78 165.23C226.23 164.61 226.94 164.28 227.66 164.28C228.06 164.28 228.46 164.38 228.82 164.59L231.1 165.92C232.13 166.52 232.55 167.79 232.08 168.88L229.98 174.4C229.79 174.9 229.95 175.47 230.37 175.8C230.91 176.24 231.48 176.71 232.04 177.2C232.27 177.41 232.56 177.52 232.86 177.52C233.08 177.52 233.29 177.46 233.49 177.35L238.55 174.31C238.94 174.05 239.39 173.92 239.83 173.92C240.5 173.92 241.16 174.21 241.62 174.76L243.3 176.78C244.06 177.69 244.02 179.03 243.21 179.89L239.36 184.33C239.02 184.75 238.98 185.34 239.26 185.8C239.64 186.43 240.01 187.07 240.35 187.71C240.57 188.12 240.99 188.37 241.45 188.37C241.52 188.37 241.6 188.37 241.67 188.35L247.45 187.22C247.63 187.18 247.82 187.15 248 187.15C248.96 187.15 249.85 187.75 250.19 188.69L251.08 191.16C251.49 192.27 251.01 193.52 249.95 194.06L244.8 196.92C244.34 197.19 244.1 197.72 244.21 198.24C244.37 198.94 244.48 199.68 244.59 200.39C244.66 200.93 245.07 201.36 245.61 201.45L251.41 202.39C252.57 202.52 253.46 203.47 253.53 204.64V207.29C253.53 208.48 252.63 209.47 251.45 209.62L245.64 210.56C245.11 210.65 244.71 211.08 244.63 211.61C244.53 212.25 244.42 212.84 244.3 213.47L244.25 213.76C244.13 214.29 244.37 214.83 244.84 215.09L250 217.96C251.06 218.5 251.54 219.75 251.13 220.86L250.24 223.32C249.9 224.26 249.01 224.86 248.04 224.86C247.86 224.86 247.67 224.84 247.49 224.79L241.73 223.67C241.66 223.66 241.58 223.65 241.51 223.65C241.06 223.65 240.63 223.9 240.41 224.31C240.08 224.96 239.71 225.61 239.32 226.22C239.03 226.68 239.07 227.27 239.42 227.68L243.28 232.13C244.1 232.99 244.13 234.33 243.36 235.24L241.69 237.25C241.23 237.8 240.57 238.08 239.89 238.08C239.45 238.08 239 237.96 238.61 237.7L233.54 234.67C233.35 234.55 233.13 234.5 232.91 234.5C232.62 234.5 232.32 234.61 232.09 234.81C231.53 235.31 230.97 235.76 230.42 236.22C230 236.56 229.85 237.13 230.04 237.63L232.13 243.14C232.61 244.23 232.19 245.51 231.15 246.1L228.87 247.42C228.5 247.63 228.1 247.73 227.71 247.73C226.99 247.73 226.28 247.4 225.83 246.78L222.04 242.11C221.89 241.93 221.67 241.72 221.29 241.72C221.15 241.72 220.99 241.75 220.81 241.81L220.67 241.86C220.13 242.07 219.52 242.3 218.65 242.6C218.14 242.77 217.8 243.24 217.8 243.78L217.89 249.7C217.95 250.88 217.12 251.93 215.95 252.14L213.35 252.59C213.22 252.61 213.09 252.63 212.95 252.63H212.93C211.9 252.63 210.99 251.94 210.68 250.95L208.76 245.37C208.58 244.87 208.11 244.54 207.59 244.54C207.59 244.54 207.57 244.54 207.56 244.54H205.35C205.35 244.54 205.32 244.54 205.3 244.54C204.78 244.54 204.31 244.87 204.13 245.37L202.21 250.97C201.9 251.97 200.98 252.63 199.96 252.63C199.83 252.63 199.69 252.62 199.55 252.59L196.96 252.14C195.79 251.92 194.96 250.87 195.02 249.68L195.11 243.79C195.11 243.25 194.77 242.77 194.26 242.61C193.33 242.3 192.8 242.11 192.01 241.79C191.92 241.75 191.83 241.74 191.73 241.74C191.42 241.74 191.07 241.91 190.83 242.21L187.09 246.81C186.64 247.43 185.93 247.76 185.21 247.76C184.81 247.76 184.41 247.66 184.05 247.45L181.76 246.13C180.73 245.53 180.31 244.26 180.78 243.17L182.88 237.65C183.07 237.15 182.91 236.58 182.49 236.25C181.95 235.81 181.38 235.34 180.82 234.85C180.59 234.64 180.3 234.53 180 234.53C179.78 234.53 179.57 234.59 179.37 234.7L174.31 237.74C173.92 238 173.47 238.13 173.03 238.13C172.36 238.13 171.7 237.84 171.24 237.29L169.56 235.27C168.81 234.35 168.86 233.02 169.67 232.15L173.52 227.71C173.87 227.29 173.91 226.7 173.62 226.24C173.24 225.61 172.87 224.97 172.53 224.33C172.31 223.92 171.89 223.67 171.44 223.67C171.37 223.67 171.29 223.67 171.22 223.69L165.44 224.81C165.26 224.85 165.07 224.88 164.89 224.88C163.93 224.88 163.04 224.28 162.69 223.34L161.79 220.87C161.37 219.76 161.86 218.51 162.92 217.97L168.07 215.1C168.53 214.83 168.77 214.3 168.66 213.78C168.5 213.08 168.39 212.34 168.28 211.63C168.21 211.09 167.8 210.66 167.26 210.57L161.45 209.63C160.27 209.5 159.37 208.5 159.38 207.31V204.69C159.38 203.51 160.27 202.51 161.45 202.37L167.26 201.43C167.79 201.33 168.2 200.91 168.27 200.38C168.37 199.74 168.48 199.15 168.6 198.52L168.65 198.23C168.77 197.7 168.53 197.15 168.05 196.89L162.9 194.03C161.84 193.49 161.36 192.24 161.77 191.12L162.67 188.66C163.01 187.72 163.9 187.12 164.87 187.12C165.05 187.12 165.24 187.14 165.42 187.19L171.19 188.31C171.27 188.32 171.34 188.33 171.41 188.33C171.86 188.33 172.29 188.08 172.51 187.67C172.84 187.02 173.21 186.38 173.6 185.76C173.89 185.3 173.85 184.71 173.5 184.3L169.64 179.86C168.82 179 168.79 177.66 169.56 176.75L171.23 174.74C171.69 174.19 172.36 173.91 173.03 173.91C173.47 173.91 173.92 174.03 174.31 174.29L179.31 177.39C179.5 177.5 179.72 177.56 179.93 177.56C180.22 177.56 180.52 177.45 180.75 177.25C181.31 176.75 181.87 176.3 182.42 175.84C182.84 175.5 182.99 174.93 182.8 174.43L180.71 168.92C180.23 167.82 180.65 166.54 181.69 165.94L183.97 164.62C184.33 164.41 184.73 164.31 185.13 164.31C185.85 164.31 186.57 164.65 187.02 165.27L190.7 169.79C191 170.14 191.36 170.32 191.71 170.32C191.82 170.32 191.94 170.3 192.05 170.26C192.56 170.07 193.69 169.64 194.2 169.44C194.72 169.28 195.08 168.8 195.07 168.25L194.98 162.33C194.92 161.15 195.75 160.1 196.92 159.89L199.52 159.44C199.65 159.42 199.79 159.41 199.92 159.41C200.94 159.41 201.87 160.08 202.18 161.08L204.09 166.66C204.27 167.16 204.73 167.49 205.26 167.49C205.27 167.49 205.28 167.49 205.29 167.49H207.5C207.5 167.49 207.53 167.49 207.55 167.49C208.07 167.49 208.54 167.16 208.71 166.66L210.63 161.05C210.94 160.05 211.87 159.39 212.88 159.39M211.25 201.3H232.08C233.22 201.3 234.29 200.76 234.96 199.84C235.63 198.92 235.83 197.74 235.49 196.65C231.54 184.35 220.02 175.43 206.45 175.43C204.34 175.43 202.25 175.65 200.19 176.08C199.08 176.33 198.15 177.08 197.69 178.13C197.23 179.17 197.29 180.37 197.86 181.36L208.16 199.49C208.79 200.61 209.98 201.3 211.27 201.3M186.52 227.69C186.64 227.69 186.77 227.69 186.89 227.67C188.03 227.55 189.05 226.89 189.62 225.9L200.05 207.77C200.68 206.67 200.68 205.31 200.05 204.21L189.72 186.03C189.15 185.03 188.14 184.36 187 184.24C186.87 184.23 186.74 184.22 186.61 184.22C185.6 184.22 184.63 184.65 183.95 185.4C173.34 197.03 173.29 214.82 183.85 226.5C184.53 227.26 185.5 227.69 186.51 227.69M206.44 236.57C220.01 236.57 231.53 227.65 235.49 215.36C235.83 214.27 235.63 213.09 234.96 212.17C234.29 211.25 233.22 210.72 232.07 210.71H211.22C209.94 210.71 208.76 211.39 208.12 212.5L197.71 230.6C197.14 231.59 197.07 232.79 197.53 233.83C197.99 234.87 198.91 235.64 200.03 235.89C202.13 236.34 204.28 236.57 206.43 236.57M212.88 156.85C210.74 156.85 208.87 158.22 208.21 160.25L206.6 164.94H206.18L204.58 160.28C203.93 158.23 202.06 156.85 199.9 156.85C199.62 156.85 199.34 156.87 199.07 156.92L196.47 157.37C194.05 157.81 192.33 159.97 192.43 162.39L192.51 167.35C192.38 167.4 192.25 167.45 192.13 167.5L189.03 163.69C188.11 162.47 186.66 161.74 185.13 161.74C184.28 161.74 183.45 161.96 182.71 162.39L180.42 163.72C178.28 164.95 177.4 167.58 178.36 169.86L180.1 174.44C180 174.52 179.9 174.6 179.81 174.68L175.68 172.12C174.89 171.61 173.98 171.35 173.04 171.35C171.6 171.35 170.23 171.98 169.3 173.08L167.61 175.11C166.03 176.97 166.09 179.74 167.76 181.55L170.96 185.23C170.89 185.36 170.81 185.49 170.74 185.62L165.96 184.7C165.61 184.62 165.24 184.58 164.88 184.58C162.84 184.58 160.99 185.87 160.29 187.79L159.39 190.24C158.54 192.54 159.53 195.12 161.7 196.27L165.99 198.65C165.96 198.79 165.94 198.93 165.91 199.07L161.08 199.85C158.67 200.17 156.85 202.24 156.83 204.67V207.31C156.82 209.77 158.64 211.85 161.1 212.15L165.91 212.93C165.93 213.07 165.96 213.21 165.98 213.35L161.71 215.73C159.53 216.87 158.54 219.45 159.4 221.76L160.3 224.21C161 226.13 162.84 227.42 164.88 227.42C165.24 227.42 165.6 227.38 165.96 227.3L170.75 226.37C170.82 226.5 170.9 226.63 170.97 226.75L167.78 230.44C166.13 232.23 166.04 234.98 167.59 236.87L169.28 238.9C170.2 240.02 171.57 240.66 173.02 240.66C173.96 240.66 174.87 240.39 175.66 239.88L179.86 237.36C179.96 237.45 180.06 237.53 180.16 237.61L178.41 242.2C177.47 244.46 178.35 247.08 180.47 248.31L182.76 249.63C183.5 250.06 184.34 250.28 185.2 250.28C186.72 250.28 188.17 249.56 189.09 248.35L192.17 244.56C192.29 244.61 192.42 244.65 192.55 244.69L192.47 249.58C192.37 252.02 194.09 254.18 196.49 254.62L199.11 255.08C199.39 255.13 199.67 255.15 199.96 255.15C202.1 255.15 203.97 253.78 204.63 251.75L206.24 247.07H206.66L208.26 251.73C208.91 253.78 210.78 255.16 212.92 255.16C213.22 255.16 213.51 255.13 213.79 255.08L216.37 254.63C218.78 254.19 220.51 252.04 220.41 249.61L220.33 244.69C220.47 244.64 220.6 244.59 220.72 244.55L223.79 248.34C224.71 249.55 226.15 250.27 227.68 250.27C228.53 250.27 229.37 250.04 230.11 249.62L232.39 248.3C234.52 247.07 235.4 244.45 234.45 242.18L232.71 237.59C232.81 237.51 232.91 237.42 233.01 237.34L237.22 239.86C238.01 240.36 238.91 240.62 239.84 240.62C241.29 240.62 242.65 239.99 243.58 238.88L245.27 236.85C246.85 234.99 246.79 232.22 245.12 230.41L241.92 226.72C241.99 226.59 242.07 226.46 242.14 226.33L246.91 227.26C247.26 227.34 247.63 227.38 247.99 227.38C250.03 227.38 251.88 226.09 252.58 224.17L253.47 221.7C254.32 219.41 253.33 216.83 251.15 215.69L246.86 213.31C246.89 213.17 246.91 213.03 246.94 212.89L251.77 212.11C254.18 211.79 256.01 209.72 256.03 207.28V204.61C256.03 204.61 256.03 204.52 256.03 204.47C255.9 202.08 254.1 200.14 251.73 199.84L246.92 199.06C246.9 198.92 246.87 198.78 246.85 198.64L251.12 196.27C253.3 195.13 254.29 192.55 253.43 190.24L252.54 187.79C251.84 185.87 250 184.57 247.95 184.57C247.59 184.57 247.22 184.61 246.87 184.69L242.08 185.63C242.01 185.5 241.94 185.38 241.86 185.25L245.06 181.55C246.7 179.75 246.77 176.99 245.21 175.12L243.53 173.1C242.61 171.99 241.24 171.34 239.79 171.34C238.85 171.34 237.94 171.61 237.15 172.12L232.95 174.64C232.85 174.55 232.75 174.47 232.65 174.39L234.39 169.8C235.33 167.54 234.45 164.92 232.33 163.69L230.06 162.36C229.31 161.93 228.47 161.7 227.61 161.7C226.08 161.7 224.63 162.43 223.71 163.64L220.67 167.46C220.54 167.41 220.4 167.36 220.26 167.3L220.33 162.39C220.43 159.95 218.71 157.79 216.31 157.35L213.7 156.89C213.43 156.84 213.14 156.82 212.86 156.82L212.88 156.85ZM211.25 198.76C210.88 198.76 210.54 198.56 210.36 198.24L200.06 180.11C199.89 179.82 199.87 179.47 200.01 179.17C200.14 178.87 200.41 178.65 200.73 178.58C202.59 178.19 204.52 177.99 206.44 177.99C218.63 177.99 229.33 185.81 233.07 197.44C233.16 197.73 233.11 198.08 232.91 198.34C232.72 198.6 232.41 198.76 232.08 198.76H211.25ZM186.5 225.15C186.21 225.15 185.93 225.02 185.73 224.81C175.99 214.04 176.03 197.84 185.81 187.13C186.02 186.9 186.3 186.78 186.59 186.78C186.63 186.78 186.66 186.78 186.7 186.78C187.03 186.82 187.32 187.01 187.49 187.3L197.82 205.48C198.01 205.81 198.01 206.2 197.82 206.52L187.39 224.64C187.23 224.93 186.93 225.12 186.61 225.15C186.57 225.15 186.54 225.15 186.5 225.15ZM206.43 234.03C204.46 234.03 202.49 233.82 200.57 233.41C200.27 233.34 200 233.12 199.87 232.82C199.74 232.52 199.76 232.17 199.92 231.89L210.33 213.78C210.51 213.46 210.86 213.26 211.22 213.26H232.07C232.4 213.26 232.71 213.41 232.91 213.68C233.1 213.94 233.16 214.29 233.06 214.6C229.32 226.21 218.62 234.03 206.44 234.03H206.43Z" fill="#6D6E70"/>
</g>
<defs>
<linearGradient id="paint0_linear_23_28" x1="129.338" y1="245.399" x2="129.338" y2="57.5621" gradientUnits="userSpaceOnUse">
<stop stop-color="#1155D9"/>
<stop offset="1" stop-color="#7B5BF5"/>
</linearGradient>
<clipPath id="clip0_23_28">
<rect width="256.07" height="255.18" fill="white"/>
</clipPath>
</defs>
</svg>
