<svg width="256" height="256" viewBox="0 0 256 256" fill="none" xmlns="http://www.w3.org/2000/svg">
<g clip-path="url(#clip0_26_45)">
<path d="M208.475 152.535C216.455 152.535 224.025 154.235 230.885 157.265L247.955 140.195C255.375 132.775 255.375 120.735 247.955 113.315L140.195 5.565C132.775 -1.855 120.735 -1.855 113.315 5.565L5.565 113.315C-1.855 120.735 -1.855 132.775 5.565 140.195L113.325 247.955C120.745 255.375 132.785 255.375 140.205 247.955L157.715 230.445C154.685 223.585 152.985 216.015 152.985 208.035C152.985 177.385 177.835 152.545 208.475 152.545V152.535ZM116.755 169.005C113.935 171.075 109.965 170.465 107.895 167.645C107.095 166.555 106.665 165.245 106.665 163.895V89.625C106.665 86.125 109.505 83.285 113.005 83.285C114.355 83.285 115.665 83.715 116.755 84.515L167.255 121.655C170.075 123.725 170.675 127.695 168.605 130.515C168.225 131.025 167.775 131.485 167.255 131.865L116.755 169.005ZM255.995 209.315V206.635C255.935 205.455 255.025 204.495 253.855 204.365L247.995 203.415C247.455 203.325 247.035 202.895 246.965 202.345C246.855 201.625 246.735 200.875 246.575 200.165C246.465 199.635 246.715 199.105 247.175 198.825L252.375 195.935C253.445 195.385 253.935 194.125 253.515 193.005L252.615 190.515C252.205 189.385 251.015 188.745 249.845 189.025L244.005 190.165C243.475 190.265 242.935 190.005 242.675 189.525C242.335 188.885 241.965 188.235 241.575 187.605C241.285 187.135 241.325 186.545 241.675 186.125L245.555 181.635C246.375 180.755 246.405 179.415 245.645 178.495L243.945 176.455C243.185 175.525 241.845 175.335 240.845 175.995L235.735 179.065C235.265 179.345 234.675 179.285 234.275 178.925C233.715 178.425 233.135 177.955 232.595 177.515C232.165 177.175 232.005 176.605 232.205 176.095L234.325 170.525C234.805 169.425 234.375 168.145 233.345 167.535L231.035 166.185C229.995 165.585 228.675 165.865 227.965 166.835L224.225 171.525C223.945 171.945 223.415 172.115 222.945 171.915C222.805 171.855 221.625 171.375 220.715 171.065C220.195 170.895 219.855 170.415 219.865 169.865L219.955 163.905C220.025 162.705 219.185 161.635 217.995 161.415L215.375 160.955C215.235 160.935 215.105 160.915 214.965 160.915C213.935 160.915 213.005 161.575 212.685 162.585L210.745 168.255C210.565 168.775 210.065 169.115 209.525 169.085H207.295C206.755 169.095 206.265 168.755 206.085 168.245L204.155 162.605C203.805 161.455 202.655 160.745 201.465 160.945L198.845 161.405C197.665 161.625 196.835 162.675 196.885 163.875L196.975 169.855C196.975 170.405 196.615 170.895 196.095 171.055C195.575 171.255 194.435 171.695 193.925 171.885C193.465 172.045 192.975 171.865 192.565 171.405L188.855 166.835C188.145 165.865 186.825 165.575 185.785 166.175L183.485 167.505C182.435 168.105 182.005 169.405 182.495 170.515L184.605 176.075C184.795 176.585 184.635 177.155 184.215 177.495C183.655 177.955 183.095 178.405 182.525 178.915C182.125 179.275 181.535 179.335 181.075 179.065L176.025 175.935C175.025 175.285 173.685 175.475 172.915 176.395L171.225 178.425C170.445 179.345 170.485 180.695 171.305 181.565L175.205 186.045C175.565 186.455 175.605 187.055 175.305 187.515C174.915 188.135 174.545 188.795 174.205 189.445C173.945 189.925 173.405 190.185 172.865 190.085L167.035 188.955C165.865 188.675 164.675 189.315 164.265 190.445L163.355 192.935C162.935 194.065 163.425 195.325 164.495 195.875L169.695 198.765C170.175 199.035 170.425 199.585 170.305 200.115L170.245 200.405C170.125 201.045 170.015 201.645 169.915 202.285C169.845 202.825 169.425 203.245 168.895 203.345L163.025 204.295C161.835 204.445 160.945 205.445 160.935 206.645V209.295C160.935 210.495 161.835 211.505 163.025 211.635L168.895 212.585C169.435 212.675 169.855 213.105 169.925 213.655C170.035 214.375 170.155 215.125 170.315 215.825C170.425 216.355 170.175 216.895 169.715 217.165L164.515 220.055C163.445 220.605 162.955 221.865 163.375 222.985L164.285 225.475C164.695 226.605 165.885 227.245 167.055 226.965L172.895 225.835C173.435 225.735 173.965 225.995 174.225 226.475C174.565 227.115 174.935 227.765 175.325 228.395C175.615 228.865 175.575 229.455 175.225 229.875L171.345 234.355C170.515 235.225 170.475 236.575 171.235 237.505L172.925 239.545C173.685 240.475 175.025 240.665 176.025 240.005L181.135 236.935C181.595 236.655 182.195 236.715 182.595 237.075C183.165 237.575 183.735 238.045 184.275 238.485C184.705 238.825 184.865 239.395 184.675 239.905L182.555 245.475C182.075 246.575 182.505 247.855 183.545 248.465L185.855 249.795C186.895 250.395 188.215 250.115 188.925 249.155L192.705 244.505C193.025 244.105 193.525 243.935 193.895 244.085C194.695 244.415 195.225 244.595 196.165 244.915C196.685 245.085 197.025 245.565 197.025 246.105L196.935 252.055C196.875 253.255 197.705 254.325 198.895 254.545L201.515 255.005C202.695 255.215 203.845 254.505 204.195 253.365L206.135 247.705C206.315 247.185 206.815 246.855 207.355 246.875H209.585C210.125 246.865 210.615 247.205 210.795 247.715L212.725 253.355C213.035 254.365 213.965 255.055 215.015 255.045C215.145 255.045 215.285 255.035 215.415 255.005L218.035 254.545C219.215 254.325 220.045 253.275 219.995 252.085L219.905 246.105C219.905 245.565 220.245 245.085 220.765 244.915C221.645 244.615 222.255 244.385 222.805 244.175L222.945 244.125C223.655 243.885 223.995 244.175 224.195 244.425L228.025 249.135C228.735 250.105 230.055 250.375 231.095 249.775L233.395 248.445C234.435 247.845 234.865 246.555 234.375 245.455L232.265 239.895C232.075 239.385 232.225 238.815 232.655 238.475C233.205 238.015 233.775 237.565 234.345 237.055C234.745 236.695 235.335 236.635 235.805 236.915L240.925 239.975C241.925 240.625 243.265 240.435 244.035 239.515L245.725 237.485C246.505 236.565 246.465 235.215 245.645 234.345L241.745 229.855C241.385 229.445 241.345 228.845 241.645 228.385C242.035 227.765 242.405 227.115 242.745 226.455C243.005 225.975 243.545 225.715 244.085 225.815L249.905 226.955C251.075 227.235 252.265 226.595 252.675 225.465L253.575 222.975C253.995 221.845 253.505 220.585 252.435 220.045L247.225 217.155C246.755 216.885 246.505 216.345 246.625 215.805L246.675 215.515C246.795 214.875 246.905 214.275 247.005 213.635C247.075 213.095 247.495 212.675 248.025 212.575L253.895 211.625C255.085 211.485 255.985 210.475 255.995 209.275V209.315ZM199.625 179.885C200.095 178.835 201.025 178.065 202.145 177.815C204.225 177.375 206.335 177.155 208.475 177.155C222.185 177.155 233.815 186.165 237.805 198.585C238.145 199.685 237.955 200.875 237.265 201.805C236.585 202.725 235.505 203.275 234.355 203.275H213.325C212.025 203.275 210.825 202.575 210.185 201.445L199.785 183.135C199.215 182.135 199.155 180.925 199.615 179.875L199.625 179.885ZM191.465 228.115C190.885 229.115 189.865 229.785 188.715 229.905C188.585 229.915 188.465 229.925 188.335 229.925C187.315 229.925 186.335 229.495 185.645 228.725C174.985 216.935 175.025 198.965 185.745 187.225C186.525 186.365 187.665 185.925 188.815 186.055C189.965 186.185 190.995 186.855 191.565 187.865L201.995 206.225C202.635 207.335 202.635 208.705 201.995 209.825L191.465 228.135V228.115ZM237.805 217.475C233.805 229.885 222.175 238.895 208.475 238.895C206.305 238.895 204.135 238.665 202.015 238.205C200.895 237.955 199.955 237.185 199.495 236.125C199.035 235.075 199.105 233.855 199.675 232.865L210.185 214.585C210.825 213.465 212.025 212.775 213.315 212.775H234.365C235.515 212.775 236.595 213.315 237.275 214.245C237.955 215.175 238.155 216.365 237.815 217.465L237.805 217.475Z" fill="url(#paint0_linear_26_45)"/>
<path d="M168.615 130.515C170.685 127.695 170.085 123.735 167.265 121.655L116.765 84.515C115.675 83.715 114.365 83.285 113.015 83.285C109.515 83.285 106.675 86.125 106.675 89.625V163.895C106.675 165.245 107.105 166.555 107.905 167.645C109.975 170.465 113.945 171.075 116.765 169.005L167.265 131.865C167.785 131.485 168.235 131.035 168.615 130.515Z" fill="white"/>
</g>
<defs>
<linearGradient id="paint0_linear_26_45" x1="129.418" y1="249.945" x2="129.418" y2="59.1329" gradientUnits="userSpaceOnUse">
<stop stop-color="#1155D9"/>
<stop offset="1" stop-color="#7B5BF5"/>
</linearGradient>
<clipPath id="clip0_26_45">
<rect width="256" height="256" fill="white"/>
</clipPath>
</defs>
</svg>
