<svg width="500" height="500" viewBox="0 0 500 500" fill="none" xmlns="http://www.w3.org/2000/svg">
<g clip-path="url(#clip0_1_3)">
<path d="M250 4L495.951 250H4.04878L250 4Z" fill="#8A5AAB"/>
<path d="M250 496L4.04875 250L495.951 250L250 496Z" fill="#3A497D"/>
<path d="M337 250L211 342.665L211 157.335L337 250Z" fill="white"/>
<path fill-rule="evenodd" clip-rule="evenodd" d="M358.529 18.3975L375.337 24.1151C380.602 21.7511 386.162 19.9294 391.948 18.7213L402.183 4.22057C404.333 4.07432 406.503 4 408.69 4C410.878 4 413.048 4.07432 415.198 4.22057L425.433 18.7213C431.219 19.9294 436.779 21.7511 442.044 24.1151L458.852 18.3975C462.537 20.71 466.051 23.2698 469.371 26.0535L469.128 43.8218C473.027 48.1287 476.471 52.8543 479.387 57.923L496.371 63.1849C497.979 67.1743 499.323 71.2986 500.381 75.5361L489.73 89.7813C490.034 92.6458 490.19 95.5546 490.19 98.5C490.19 101.445 490.034 104.354 489.73 107.219L500.381 121.464C499.323 125.701 497.979 129.826 496.371 133.815L479.387 139.077C476.471 144.146 473.027 148.871 469.128 153.178L469.371 170.947C466.051 173.73 462.537 176.29 458.852 178.602L442.044 172.885C436.779 175.249 431.219 177.071 425.433 178.279L415.198 192.779C413.048 192.926 410.878 193 408.69 193C406.503 193 404.333 192.926 402.183 192.779L391.948 178.279C386.162 177.071 380.602 175.249 375.337 172.885L358.529 178.602C354.844 176.29 351.329 173.73 348.01 170.947L348.253 153.178C344.354 148.871 340.909 144.146 337.994 139.077L321.01 133.815C319.402 129.826 318.058 125.701 317 121.464L327.651 107.219C327.347 104.354 327.19 101.445 327.19 98.5C327.19 95.5547 327.347 92.6458 327.651 89.7813L317 75.5361C318.058 71.2986 319.402 67.1743 321.01 63.1849L337.994 57.923C340.909 52.8543 344.354 48.1287 348.253 43.8218L348.01 26.0535C351.329 23.2698 354.844 20.71 358.529 18.3975ZM455.19 98.5C455.19 124.181 434.372 145 408.69 145C383.009 145 362.19 124.181 362.19 98.5C362.19 72.8188 383.009 52 408.69 52C434.372 52 455.19 72.8188 455.19 98.5Z" fill="white"/>
</g>
<defs>
<clipPath id="clip0_1_3">
<rect width="500" height="500" fill="white"/>
</clipPath>
</defs>
</svg>
